<svg width="64" height="64" viewBox="0 0 64 64" fill="none" xmlns="http://www.w3.org/2000/svg">
<path d="M46.7106 43.6645C46.6902 43.6224 46.6665 43.5942 46.6394 43.5801C46.114 43.3072 45.0541 42.7727 43.4597 41.9766L43.4695 22.6099C43.4695 22.6044 43.468 22.5989 43.4653 22.594C43.4626 22.5892 43.4587 22.5851 43.454 22.5822C43.4493 22.5793 43.4439 22.5777 43.4384 22.5775C43.4329 22.5773 43.4275 22.5786 43.4226 22.5812L38.4966 25.1686C38.4868 25.1736 38.4786 25.1813 38.4728 25.1909C38.467 25.2004 38.464 25.2113 38.4639 25.2225C38.4639 29.8446 38.4639 34.4719 38.4639 39.1045C38.4639 39.4852 38.4452 39.7787 38.4078 39.985C37.9442 42.5432 35.3179 43.2371 33.0942 43.1942C32.7892 43.1881 32.4968 43.157 32.2169 43.101C30.8339 42.8234 29.4933 42.2373 28.4869 41.2265C28.4813 41.2212 28.4688 41.2165 28.4494 41.2124L28.4463 41.1898C28.4442 41.1757 28.4383 41.1635 28.4286 41.1531C27.8033 40.4854 27.4441 40.0073 27.2264 39.116C27.2199 39.0898 27.1365 38.7745 27.1008 38.773C27.0861 38.5408 27.0793 38.1432 27.0805 37.5801C27.0932 31.4659 27.1084 25.3563 27.126 19.2513C27.126 19.246 27.1247 19.2409 27.1221 19.2363C27.1195 19.2317 27.1158 19.2279 27.1113 19.2252C27.1068 19.2225 27.1017 19.221 27.0965 19.2208C27.0912 19.2207 27.086 19.2219 27.0814 19.2243L21.7926 22.0234C21.779 22.0308 21.7722 22.0421 21.7722 22.0574L21.801 41.3405L18.437 43.1602C18.3981 38.8685 18.3884 34.5763 18.357 30.2846C18.3316 26.8601 18.3178 23.4381 18.3154 20.0186C18.3155 20.0097 18.3179 20.0011 18.3224 19.9936C18.3269 19.9862 18.3334 19.9801 18.3411 19.9761L27.8929 14.8906C27.9215 14.8753 27.9501 14.8754 27.9786 14.891L30.3839 16.2139C30.3996 16.2225 30.4127 16.2351 30.4218 16.2504C30.4309 16.2657 30.4357 16.2832 30.4356 16.301C30.4471 22.7355 30.441 29.15 30.4617 35.5717C30.4635 36.0831 30.4286 36.5834 30.4821 37.1094C30.6036 38.3058 31.3214 39.2079 32.4816 39.5372C33.2944 39.7679 34.6611 40.0314 35.2029 39.1359C35.2345 39.0835 35.2502 39.022 35.2502 38.9516C35.2399 33.7158 35.2242 28.4927 35.2029 23.2822C35.2026 23.246 35.2184 23.2191 35.2502 23.2018L44.086 18.3708C44.099 18.3638 44.1134 18.3601 44.1281 18.3599C44.1428 18.3596 44.1573 18.3629 44.1705 18.3695L46.7419 19.6756C46.7481 19.6786 46.7532 19.6833 46.7568 19.6891C46.7604 19.6949 46.7623 19.7015 46.7623 19.7083C46.7623 27.6661 46.7623 35.6233 46.7623 43.5797C46.7623 43.6168 46.745 43.6451 46.7106 43.6645Z" fill="#FEF7EF"/>
<path d="M28.4494 41.2123L28.4291 41.3542C28.4273 41.3684 28.4201 41.379 28.4074 41.386C28.0243 41.5985 27.6383 41.8037 27.2494 42.0017C25.454 42.9155 23.6616 43.8351 21.8721 44.7606C21.8589 44.7674 21.8452 44.7746 21.831 44.7823C21.8204 44.7882 21.8094 44.7894 21.7979 44.7858C21.7198 44.7608 21.6441 44.7306 21.5707 44.6952C20.4705 44.1613 19.5158 43.7052 18.7066 43.3268C18.6123 43.2826 18.5225 43.2271 18.437 43.1602L21.801 41.3405L27.1009 38.773C27.1365 38.7745 27.1576 38.7883 27.1641 38.8146C27.3818 39.7059 27.8033 40.4854 28.4286 41.1531C28.4383 41.1634 28.4442 41.1757 28.4463 41.1898L28.4494 41.2123Z" fill="#FEF7EF"/>
<path d="M43.4598 41.9766C45.0542 42.7727 46.114 43.3072 46.6394 43.5801C46.6665 43.5942 46.6903 43.6224 46.7106 43.6645C46.6705 43.7028 46.6285 43.7332 46.5846 43.7556C42.2867 45.9564 37.9875 48.1572 33.6869 50.358C33.6734 50.3648 33.6598 50.3651 33.6463 50.3589C30.6394 49.0002 30.4087 48.884 30.4087 48.884C30.4087 48.884 30.5431 48.8216 30.6531 48.7629C34.5556 46.6908 38.4579 44.6186 42.3601 42.5463C42.7284 42.3506 43.095 42.1607 43.4598 41.9766Z" fill="#FEF7EF"/>
</svg>
