<svg width="41" height="40" viewBox="0 0 41 40" fill="none" xmlns="http://www.w3.org/2000/svg">
<path d="M25.7446 6.18795C25.5466 5.67302 25.0519 5.33325 24.5002 5.33325C23.9485 5.33325 23.4537 5.67302 23.2557 6.18795L21.6842 10.2738C21.2837 11.3152 21.1578 11.6153 20.9856 11.8574C20.8129 12.1004 20.6006 12.3127 20.3577 12.4854C20.1156 12.6576 19.8155 12.7834 18.7741 13.184L14.6882 14.7555C14.1733 14.9535 13.8335 15.4482 13.8335 15.9999C13.8335 16.5516 14.1733 17.0463 14.6882 17.2444L18.7741 18.8159C19.8155 19.2164 20.1156 19.3423 20.3577 19.5144C20.6006 19.6872 20.8129 19.8994 20.9856 20.1424C21.1578 20.3845 21.2837 20.6846 21.6842 21.726L23.2557 25.8119C23.4537 26.3268 23.9485 26.6666 24.5002 26.6666C25.0519 26.6666 25.5466 26.3268 25.7446 25.8119L27.3161 21.726C27.7167 20.6846 27.8425 20.3845 28.0147 20.1424C28.1874 19.8994 28.3997 19.6872 28.6426 19.5144C28.8848 19.3423 29.1848 19.2164 30.2262 18.8159L34.3121 17.2444C34.8271 17.0463 35.1668 16.5516 35.1668 15.9999C35.1668 15.4482 34.8271 14.9535 34.3121 14.7555L30.2262 13.184C29.1848 12.7834 28.8848 12.6576 28.6426 12.4854C28.3997 12.3127 28.1874 12.1004 28.0147 11.8574C27.8425 11.6153 27.7167 11.3152 27.3161 10.2738L25.7446 6.18795Z" fill="#4F2E07"/>
<path d="M14.3594 20.737C14.1335 20.2853 13.6719 19.9999 13.1668 19.9999C12.6618 19.9999 12.2001 20.2853 11.9743 20.737L10.9283 22.8289C10.5517 23.5821 10.4369 23.7989 10.2974 23.9798C10.1576 24.1613 9.99488 24.324 9.81342 24.4639C9.6325 24.6033 9.41572 24.7181 8.66243 25.0947L6.57054 26.1407C6.11883 26.3665 5.8335 26.8282 5.8335 27.3333C5.8335 27.8383 6.11883 28.3 6.57054 28.5258L8.66243 29.5718C9.41572 29.9484 9.6325 30.0632 9.81342 30.2026C9.99488 30.3425 10.1576 30.5052 10.2974 30.6867C10.4369 30.8676 10.5517 31.0844 10.9283 31.8376L11.9743 33.9295C12.2001 34.3812 12.6618 34.6666 13.1668 34.6666C13.6719 34.6666 14.1335 34.3812 14.3594 33.9295L15.4053 31.8376C15.782 31.0844 15.8968 30.8676 16.0362 30.6867C16.1761 30.5052 16.3388 30.3425 16.5202 30.2026C16.7012 30.0632 16.9179 29.9484 17.6712 29.5718L19.7631 28.5258C20.2148 28.3 20.5002 27.8383 20.5002 27.3333C20.5002 26.8282 20.2148 26.3665 19.7631 26.1407L17.6712 25.0947C16.9179 24.7181 16.7012 24.6033 16.5202 24.4639C16.3388 24.324 16.1761 24.1613 16.0362 23.9798C15.8968 23.7989 15.782 23.5821 15.4053 22.8289L14.3594 20.737Z" fill="#4F2E07"/>
</svg>
