<svg width="40" height="41" viewBox="0 0 40 41" fill="none" xmlns="http://www.w3.org/2000/svg">
<path d="M25.2445 6.68801C25.0465 6.17308 24.5517 5.83331 24 5.83331C23.4483 5.83331 22.9536 6.17308 22.7556 6.68801L21.1841 10.7739C20.7835 11.8153 20.6577 12.1154 20.4855 12.3575C20.3128 12.6005 20.1005 12.8127 19.8576 12.9855C19.6154 13.1576 19.3154 13.2835 18.274 13.684L14.1881 15.2555C13.6731 15.4536 13.3334 15.9483 13.3334 16.5C13.3334 17.0517 13.6731 17.5464 14.1881 17.7444L18.274 19.3159C19.3154 19.7165 19.6154 19.8423 19.8576 20.0145C20.1005 20.1872 20.3128 20.3995 20.4855 20.6425C20.6577 20.8846 20.7835 21.1847 21.1841 22.2261L22.7556 26.312C22.9536 26.8269 23.4483 27.1666 24 27.1666C24.5517 27.1666 25.0465 26.8269 25.2445 26.312L26.816 22.2261C27.2165 21.1847 27.3424 20.8846 27.5146 20.6425C27.6873 20.3995 27.8996 20.1872 28.1425 20.0145C28.3846 19.8423 28.6847 19.7165 29.7261 19.3159L33.812 17.7444C34.3269 17.5464 34.6667 17.0517 34.6667 16.5C34.6667 15.9483 34.3269 15.4536 33.812 15.2555L29.7261 13.684C28.6847 13.2835 28.3846 13.1576 28.1425 12.9855C27.8996 12.8127 27.6873 12.6005 27.5146 12.3575C27.3424 12.1154 27.2165 11.8153 26.816 10.7739L25.2445 6.68801Z" fill="black"/>
<path d="M13.8593 21.237C13.6334 20.7853 13.1717 20.5 12.6667 20.5C12.1617 20.5 11.7 20.7853 11.4741 21.237L10.4282 23.3289C10.0515 24.0822 9.93677 24.299 9.79732 24.4799C9.65744 24.6614 9.49476 24.824 9.3133 24.9639C9.13238 25.1034 8.9156 25.2182 8.16231 25.5948L6.07042 26.6407C5.61871 26.8666 5.33337 27.3283 5.33337 27.8333C5.33337 28.3383 5.61871 28.8 6.07042 29.0259L8.16231 30.0718C8.9156 30.4485 9.13238 30.5632 9.3133 30.7027C9.49476 30.8426 9.65744 31.0053 9.79732 31.1867C9.93677 31.3676 10.0515 31.5844 10.4282 32.3377L11.4741 34.4296C11.7 34.8813 12.1617 35.1666 12.6667 35.1666C13.1717 35.1666 13.6334 34.8813 13.8593 34.4296L14.9052 32.3377C15.2819 31.5844 15.3966 31.3676 15.5361 31.1867C15.676 31.0053 15.8387 30.8426 16.0201 30.7027C16.201 30.5632 16.4178 30.4485 17.1711 30.0718L19.263 29.0259C19.7147 28.8 20 28.3383 20 27.8333C20 27.3283 19.7147 26.8666 19.263 26.6407L17.1711 25.5948C16.4178 25.2182 16.201 25.1034 16.0201 24.9639C15.8387 24.824 15.676 24.6614 15.5361 24.4799C15.3966 24.299 15.2819 24.0822 14.9052 23.3289L13.8593 21.237Z" fill="black"/>
</svg>
