<svg width="40" height="40" viewBox="0 0 40 40" fill="none" xmlns="http://www.w3.org/2000/svg">
<g clip-path="url(#clip0_926_453)">
<path d="M4 16.8C4 12.3196 4 10.0794 4.87195 8.36808C5.63893 6.86278 6.86278 5.63893 8.36808 4.87195C10.0794 4 12.3196 4 16.8 4H23.2C27.6804 4 29.9206 4 31.6319 4.87195C33.1372 5.63893 34.3611 6.86278 35.1281 8.36808C36 10.0794 36 12.3196 36 16.8V23.2C36 27.6804 36 29.9206 35.1281 31.6319C34.3611 33.1372 33.1372 34.3611 31.6319 35.1281C29.9206 36 27.6804 36 23.2 36H16.8C12.3196 36 10.0794 36 8.36808 35.1281C6.86278 34.3611 5.63893 33.1372 4.87195 31.6319C4 29.9206 4 27.6804 4 23.2V16.8Z" fill="#9D5C0D"/>
<path d="M27.3554 25.8321C27.3452 25.811 27.3334 25.797 27.3198 25.7899C27.0571 25.6535 26.5272 25.3862 25.73 24.9881L25.7349 15.3048C25.7349 15.302 25.7341 15.2993 25.7328 15.2969C25.7314 15.2944 25.7295 15.2924 25.7271 15.2909C25.7248 15.2895 25.7221 15.2887 25.7193 15.2886C25.7166 15.2885 25.7139 15.2892 25.7114 15.2904L23.2484 16.5842C23.2435 16.5867 23.2394 16.5905 23.2365 16.5953C23.2336 16.6 23.2321 16.6055 23.2321 16.6111C23.2321 18.9221 23.2321 21.2358 23.2321 23.5521C23.2321 23.7425 23.2227 23.8892 23.204 23.9923C22.9722 25.2714 21.6591 25.6184 20.5472 25.597C20.3947 25.5939 20.2485 25.5783 20.1086 25.5503C19.4171 25.4116 18.7468 25.1185 18.2436 24.6131C18.2408 24.6104 18.2345 24.6081 18.2248 24.606L18.2233 24.5948C18.2222 24.5877 18.2193 24.5816 18.2144 24.5764C17.9018 24.2426 17.7222 24.0035 17.6133 23.5578C17.6101 23.5447 17.5684 23.3871 17.5505 23.3864C17.5432 23.2703 17.5398 23.0714 17.5404 22.7899C17.5467 19.7328 17.5543 16.678 17.5631 13.6255C17.5631 13.6229 17.5625 13.6203 17.5612 13.618C17.5599 13.6157 17.558 13.6138 17.5558 13.6125C17.5535 13.6111 17.551 13.6103 17.5484 13.6103C17.5457 13.6102 17.5431 13.6108 17.5408 13.612L14.8964 15.0116C14.8896 15.0152 14.8862 15.0209 14.8862 15.0286L14.9006 24.6701L13.2186 25.58C13.1992 23.4341 13.1943 21.288 13.1786 19.1422C13.1659 17.4299 13.159 15.7189 13.1578 14.0091C13.1578 14.0047 13.159 14.0004 13.1613 13.9967C13.1636 13.9929 13.1668 13.9899 13.1707 13.9879L17.9466 11.4451C17.9609 11.4375 17.9751 11.4376 17.9894 11.4454L19.1921 12.1068C19.1999 12.1111 19.2065 12.1174 19.211 12.125C19.2156 12.1327 19.218 12.1414 19.2179 12.1503C19.2237 15.3676 19.2206 18.5749 19.231 21.7857C19.2319 22.0414 19.2144 22.2916 19.2412 22.5545C19.3019 23.1528 19.6608 23.6038 20.2409 23.7685C20.6473 23.8838 21.3307 24.0155 21.6016 23.5678C21.6174 23.5416 21.6252 23.5109 21.6252 23.4756C21.6201 20.8577 21.6122 18.2462 21.6016 15.6409C21.6014 15.6228 21.6093 15.6094 21.6252 15.6007L26.0431 13.1853C26.0496 13.1818 26.0568 13.1799 26.0642 13.1798C26.0715 13.1797 26.0788 13.1813 26.0853 13.1846L27.3711 13.8376C27.3742 13.8392 27.3767 13.8415 27.3785 13.8444C27.3803 13.8473 27.3813 13.8506 27.3813 13.854C27.3813 17.8329 27.3813 21.8115 27.3813 25.7897C27.3813 25.8082 27.3726 25.8224 27.3554 25.8321Z" fill="#FEF7EF"/>
<path d="M18.2247 24.6064L18.2145 24.6773C18.2136 24.6844 18.21 24.6897 18.2037 24.6932C18.0122 24.7995 17.8192 24.9021 17.6247 25.0011C16.727 25.458 15.8308 25.9178 14.9361 26.3805C14.9294 26.3839 14.9226 26.3875 14.9155 26.3914C14.9102 26.3943 14.9047 26.3949 14.8989 26.3931C14.8599 26.3806 14.822 26.3655 14.7854 26.3478C14.2352 26.0809 13.7579 25.8528 13.3533 25.6636C13.3062 25.6415 13.2612 25.6138 13.2185 25.5803L14.9005 24.6705L17.5504 23.3867C17.5683 23.3875 17.5788 23.3944 17.582 23.4075C17.6909 23.8532 17.9017 24.2429 18.2143 24.5768C18.2192 24.5819 18.2221 24.588 18.2231 24.5951L18.2247 24.6064Z" fill="#FEF7EF"/>
<path d="M25.73 24.9883C26.5272 25.3864 27.0571 25.6536 27.3198 25.79C27.3334 25.7971 27.3452 25.8112 27.3554 25.8323C27.3354 25.8514 27.3144 25.8666 27.2924 25.8778C25.1435 26.9782 22.9939 28.0786 20.8436 29.179C20.8368 29.1824 20.83 29.1825 20.8233 29.1794C19.3198 28.5001 19.2045 28.442 19.2045 28.442C19.2045 28.442 19.2717 28.4108 19.3267 28.3814C21.2779 27.3454 23.2291 26.3093 25.1802 25.2731C25.3643 25.1753 25.5476 25.0804 25.73 24.9883Z" fill="#FEF7EF"/>
</g>
<path d="M3.08993 7.46009C2.48636 8.64468 2.23473 9.92505 2.11564 11.3828C1.99996 12.7985 1.99998 14.5468 2 16.7144L2 16.8V23.2L2 23.2856C1.99998 25.4532 1.99996 27.2015 2.11564 28.6172C2.23473 30.0749 2.48636 31.3553 3.08993 32.5399C4.04867 34.4215 5.57847 35.9513 7.46009 36.9101C8.64468 37.5136 9.92505 37.7653 11.3828 37.8844C12.7985 38 14.5468 38 16.7143 38H16.8H23.2H23.2857C25.4532 38 27.2015 38 28.6172 37.8844C30.0749 37.7653 31.3553 37.5136 32.5399 36.9101C34.4215 35.9513 35.9513 34.4215 36.9101 32.5399C37.5136 31.3553 37.7653 30.0749 37.8844 28.6172C38 27.2015 38 25.4532 38 23.2857V23.2V16.8V16.7143C38 14.5468 38 12.7985 37.8844 11.3828C37.7653 9.92505 37.5136 8.64468 36.9101 7.46009C35.9513 5.57847 34.4215 4.04867 32.5399 3.08993C31.3553 2.48636 30.0749 2.23473 28.6172 2.11564C27.2015 1.99996 25.4532 1.99998 23.2856 2L23.2 2H16.8L16.7144 2C14.5468 1.99998 12.7985 1.99996 11.3828 2.11564C9.92505 2.23473 8.64468 2.48636 7.46009 3.08993C5.57847 4.04867 4.04867 5.57847 3.08993 7.46009Z" stroke="#FEDF89" stroke-width="4"/>
<defs>
<clipPath id="clip0_926_453">
<path d="M4 16.8C4 12.3196 4 10.0794 4.87195 8.36808C5.63893 6.86278 6.86278 5.63893 8.36808 4.87195C10.0794 4 12.3196 4 16.8 4H23.2C27.6804 4 29.9206 4 31.6319 4.87195C33.1372 5.63893 34.3611 6.86278 35.1281 8.36808C36 10.0794 36 12.3196 36 16.8V23.2C36 27.6804 36 29.9206 35.1281 31.6319C34.3611 33.1372 33.1372 34.3611 31.6319 35.1281C29.9206 36 27.6804 36 23.2 36H16.8C12.3196 36 10.0794 36 8.36808 35.1281C6.86278 34.3611 5.63893 33.1372 4.87195 31.6319C4 29.9206 4 27.6804 4 23.2V16.8Z" fill="white"/>
</clipPath>
</defs>
</svg>
